<svg xmlns="http://www.w3.org/2000/svg" viewBox="0 0 56 44" role="img" aria-labelledby="title desc">
  <title id="title">KWC Logistics blue horse compact logo</title>
  <desc id="desc">Modern navy KWC Logistics icon with a blue horse head, route lines, and a small Canadian red accent.</desc>
  <defs>
    <linearGradient id="kwcHorseGradient" x1="12" x2="45" y1="34" y2="8" gradientUnits="userSpaceOnUse">
      <stop stop-color="#12b7ff"/>
      <stop offset="1" stop-color="#1f5eff"/>
    </linearGradient>
  </defs>
  <rect width="56" height="44" rx="12" fill="#0b1f38"/>
  <path d="M12 32h18.4c7.2 0 12.9-3.4 17.1-10.3" fill="none" stroke="#fff" stroke-width="2.8" stroke-linecap="round"/>
  <path d="M13 36h12.5c9.4 0 16.9-4.2 22.5-12.5" fill="none" stroke="#12b7ff" stroke-width="2.9" stroke-linecap="round"/>
  <path d="M20.3 29.8c2.4-4.6 4.7-8.4 7.1-11.3l-3.2-6.6 7.1 2.4c2.8-1.7 6.2-2.3 10.2-1.8 3.8.5 6.1 2.1 6.9 4.7-2.3-.7-4.3-.7-6 .1 2.7 2.3 3.7 5.2 3.1 8.6-1.5-2.2-3.5-3.3-5.9-3.3h-5.7c-2.2 0-4 1.1-5.3 3.2l-3.9 6.4h-5.3l.9-2.4Z" fill="url(#kwcHorseGradient)"/>
  <path d="M30.8 16.2c-3.7 2.5-6.5 6.7-8.5 12.7" fill="none" stroke="#fff" stroke-width="2" stroke-linecap="round"/>
  <path d="M37.7 18.8h.1" fill="none" stroke="#fff" stroke-width="2.6" stroke-linecap="round"/>
  <path d="M41.5 11.2l.7 1.6 1.8-.5-.9 1.5 1.5.9-1.7.4.1 1.8-1.5-1.1-1.5 1.1.1-1.8-1.7-.4 1.5-.9-.9-1.5 1.8.5.7-1.6Z" fill="#d91f2d"/>
</svg>
