<svg xmlns="http://www.w3.org/2000/svg" viewBox="0 0 260 72" role="img" aria-labelledby="title desc">
  <title id="title">KWC Logistics Inc. primary logo</title>
  <desc id="desc">Primary KWC Logistics Inc. logo with compact logistics-tech mark and wordmark.</desc>
  <rect x="4" y="8" width="56" height="44" rx="12" fill="#0b1f38"/>
  <defs>
    <linearGradient id="kwcPrimaryGradient" x1="14" x2="52" y1="42" y2="18" gradientUnits="userSpaceOnUse">
      <stop stop-color="#12b7ff"/>
      <stop offset="1" stop-color="#1f5eff"/>
    </linearGradient>
  </defs>
  <path d="M14 38h18.7c6.8 0 12-3 16.3-9.4" fill="none" stroke="#fff" stroke-width="3.2" stroke-linecap="round"/>
  <path d="M15 43h11.2c10.2 0 18.4-4.4 24.5-13.3" fill="none" stroke="url(#kwcPrimaryGradient)" stroke-width="3.3" stroke-linecap="round"/>
  <path d="M18.5 20v20h4.6v-7.2l6.3 7.2h5.9L27 30.8 34.8 20h-5.5l-6.2 8.7V20h-4.6Z" fill="#fff"/>
  <path d="M49.7 23.7c-2.1-2-4.9-3.2-8-3.2-6.1 0-10.2 4.1-10.2 9.7s4.2 9.6 10.3 9.6c3.2 0 5.9-1.1 8-3.1" fill="none" stroke="url(#kwcPrimaryGradient)" stroke-width="4.1" stroke-linecap="round"/>
  <path d="M43.8 29.8h8.1l-3.1-3.1" fill="none" stroke="#12b7ff" stroke-width="2.5" stroke-linecap="round" stroke-linejoin="round"/>
  <path d="M46.8 16.2l.8 1.8 2-.5-1 1.7 1.7 1-1.9.4.1 2-1.7-1.2-1.6 1.2.1-2-2-.4 1.7-1-1-1.7 2 .5.8-1.8Z" fill="#d91f2d"/>
  <text x="76" y="35" fill="#0b1f38" font-family="Inter, Avenir Next, Helvetica, Arial, sans-serif" font-size="28" font-weight="900" letter-spacing="-1">KW<tspan fill="#1f5eff">C</tspan></text>
  <text x="77" y="51" fill="#5b6675" font-family="Inter, Avenir Next, Helvetica, Arial, sans-serif" font-size="11" font-weight="800" letter-spacing="3">LOGISTICS INC.</text>
</svg>
