<svg xmlns="http://www.w3.org/2000/svg" viewBox="0 0 56 44">
  <defs>
    <linearGradient id="kwcMarkGradient" x1="10" x2="48" y1="34" y2="10" gradientUnits="userSpaceOnUse">
      <stop stop-color="#12b7ff"/>
      <stop offset="1" stop-color="#1f5eff"/>
    </linearGradient>
  </defs>
  <rect width="56" height="44" rx="12" fill="#0b1f38"/>
  <path d="M10 30h18.7c6.8 0 12-3 16.3-9.4" fill="none" stroke="#fff" stroke-width="3.2" stroke-linecap="round"/>
  <path d="M11 35h11.2c10.2 0 18.4-4.4 24.5-13.3" fill="none" stroke="url(#kwcMarkGradient)" stroke-width="3.3" stroke-linecap="round"/>
  <path d="M14.5 12v20h4.6v-7.2l6.3 7.2h5.9L23 22.8 30.8 12h-5.5l-6.2 8.7V12h-4.6Z" fill="#fff"/>
  <path d="M45.7 15.7c-2.1-2-4.9-3.2-8-3.2-6.1 0-10.2 4.1-10.2 9.7s4.2 9.6 10.3 9.6c3.2 0 5.9-1.1 8-3.1" fill="none" stroke="url(#kwcMarkGradient)" stroke-width="4.1" stroke-linecap="round"/>
  <path d="M39.8 21.8h8.1l-3.1-3.1" fill="none" stroke="#12b7ff" stroke-width="2.5" stroke-linecap="round" stroke-linejoin="round"/>
</svg>
